# xmcd
#
# Track frame offsets: 
#        150
#        19145
#        33986
#        51100
#        63686
#        75178
#        88771
#        103155
#        124055
#        139615
#        153946
#        166298
#        177500
#        192314
#        203956
#        219980
#        231973
#        247100
#        259030
#        272557
#        286449
#        300370
#        310189
#        323591
#
# Disc length: 4473 seconds
#
# Revision: 0
# Processed by: cddbd v1.5.2PL0 Copyright (c) Steve Scherf et al.
# Submitted via: ExactAudioCopy v1.1
#
DISCID=4f117718
DTITLE=Various Artist - MNM Party 2019 Volume 2 - CD 1 - Newest Party Hits
DYEAR=2019
DGENRE=Pop
TTITLE0=Marco Borsato, Armin Van Buuren and Davina Michelle - Hoe Het Da
TTITLE0=nst
TTITLE1=Tiësto, Jonas Blue and Rita Ora - Ritual
TTITLE2=Kygo and Whitney Houston - Higher Love
TTITLE3=Paul Kalkbrenner - No Goodbye
TTITLE4=Meduza Feat. Goodboys - Piece Of Your Heart
TTITLE5=Bakermat - Baiana
TTITLE6=Regi Feat. Jake Reese and OT - Summer Life
TTITLE7=Avicii - Heaven
TTITLE8=Fisher - You Little Beauty
TTITLE9=Lost Frequencies - Sun Is Shining
TTITLE10=Martin Garrix Feat. Macklemore and Patrick Stump Of Fall Out Bo
TTITLE10=y - Summer Days
TTITLE11=R3hab X A Touch Of Class - All Around The World (La La La)
TTITLE12=Mathieu Koss and Aloe Blacc - Never Growing Up
TTITLE13=LUM!X and Gabry Ponte - Monster
TTITLE14=Yves V Feat. Afrojack and Icona Pop - We Got That Cool
TTITLE15=Jax Jones and Bebe Rexha - Harder
TTITLE16=Elderbrook and Rudimental - Something About You
TTITLE17=Regard - Ride It
TTITLE18=Henri PFR Feat. Soran - Going On
TTITLE19=Netsky and Aloe Blacc - Snitch
TTITLE20=Dimitri Vegas and Like Mike, David Guetta, Daddy Yankee, Afro B
TTITLE20=ros and Natti Natasha - Instagram
TTITLE21=Lil Tecca - Ransom
TTITLE22=Aya Nakamura - Pookie
TTITLE23=Y2K and Bbno$ - Lalala
EXTD=
EXTT0=
EXTT1=
EXTT2=
EXTT3=
EXTT4=
EXTT5=
EXTT6=
EXTT7=
EXTT8=
EXTT9=
EXTT10=
EXTT11=
EXTT12=
EXTT13=
EXTT14=
EXTT15=
EXTT16=
EXTT17=
EXTT18=
EXTT19=
EXTT20=
EXTT21=
EXTT22=
EXTT23=
PLAYORDER=
